<?xml version="1.0" encoding="UTF-8" standalone="no"?>
<svg
   xmlns:dc="http://purl.org/dc/elements/1.1/"
   xmlns:cc="http://creativecommons.org/ns#"
   xmlns:rdf="http://www.w3.org/1999/02/22-rdf-syntax-ns#"
   xmlns:svg="http://www.w3.org/2000/svg"
   xmlns="http://www.w3.org/2000/svg"
   xmlns:sodipodi="http://sodipodi.sourceforge.net/DTD/sodipodi-0.dtd"
   xmlns:inkscape="http://www.inkscape.org/namespaces/inkscape"
   width="301.02612mm"
   height="36.779202mm"
   viewBox="0 0 301.02612 36.779202"
   version="1.1"
   id="svg8"
   inkscape:version="1.0.1 (3bc2e813f5, 2020-09-07)"
   sodipodi:docname="title1.svg">
  <defs
     id="defs2" />
  <sodipodi:namedview
     id="base"
     pagecolor="#ffffff"
     bordercolor="#666666"
     borderopacity="1.0"
     inkscape:pageopacity="0.0"
     inkscape:pageshadow="2"
     inkscape:zoom="0.7"
     inkscape:cx="527.7037"
     inkscape:cy="305.0449"
     inkscape:document-units="mm"
     inkscape:current-layer="layer1"
     inkscape:document-rotation="0"
     showgrid="false"
     inkscape:window-width="1431"
     inkscape:window-height="1208"
     inkscape:window-x="35"
     inkscape:window-y="32"
     inkscape:window-maximized="0" />
  <metadata
     id="metadata5">
    <rdf:RDF>
      <cc:Work
         rdf:about="">
        <dc:format>image/svg+xml</dc:format>
        <dc:type
           rdf:resource="http://purl.org/dc/dcmitype/StillImage" />
        <dc:title></dc:title>
      </cc:Work>
    </rdf:RDF>
  </metadata>
  <g
     inkscape:label="Layer 1"
     inkscape:groupmode="layer"
     id="layer1"
     transform="translate(-48.405143,-22.794687)">
    <path
       d="m 80.053543,23.404287 h -8.4328 v 20.3708 h -0.1016 c -2.54,-4.826 -10.2108,-14.0716 -15.3416,-20.3708 h -7.7724 v 35.56 h 8.4328 v -20.828 h 0.1016 c 3.4036,5.8928 10.6172,14.3764 15.9512,20.828 h 7.1628 z"
       style="font-size:50.8px;line-height:1.25;font-family:'ITC Stone Sans Std';-inkscape-font-specification:'ITC Stone Sans Std';letter-spacing:0.177271px;stroke-width:0.264583"
       id="path23" />
    <path
       d="m 103.03992,59.573887 c 10.922,0 17.6784,-8.1788 17.6784,-18.796 0,-9.9568 -7.4676,-17.9832 -17.6784,-17.9832 -10.210799,0 -17.678399,8.0264 -17.678399,17.9832 0,10.6172 6.7564,18.796 17.678399,18.796 z m 0,-7.4168 c -4.775199,0 -6.502399,-4.6736 -6.502399,-11.3792 0,-6.2992 1.9304,-10.5664 6.502399,-10.5664 4.572,0 6.5024,4.2672 6.5024,10.5664 0,6.7056 -1.7272,11.3792 -6.5024,11.3792 z"
       style="font-size:50.8px;line-height:1.25;font-family:'ITC Stone Sans Std';-inkscape-font-specification:'ITC Stone Sans Std';letter-spacing:0.177271px;stroke-width:0.264583"
       id="path25" />
    <path
       d="m 136.74518,30.059087 h 2.8448 c 2.286,0 4.4704,0.8636 4.4704,4.3688 0,1.9304 -1.4224,4.3688 -4.2672,4.3688 h -3.048 z m -10.7188,28.9052 h 10.7188 v -13.462 h 2.794 l 5.6388,14.0716 11.4808,-1.1684 -7.874,-15.24 c 3.302,-1.6256 5.9944,-4.826 5.9944,-10.2616 0,-5.842 -4.5212,-9.4996 -12.9032,-9.4996 h -15.8496 z"
       style="font-size:50.8px;line-height:1.25;font-family:'ITC Stone Sans Std';-inkscape-font-specification:'ITC Stone Sans Std';letter-spacing:0.177271px;stroke-width:0.264583"
       id="path27" />
    <path
       d="m 160.08724,23.404287 v 35.56 h 13.4112 c 10.668,0 20.1168,-5.7912 20.1168,-18.796 0,-8.5852 -5.4864,-16.764 -19.7104,-16.764 z m 10.7188,6.6548 h 3.0988 c 4.6736,0 8.6868,3.7084 8.6868,10.16 0,7.1628 -2.8956,12.0904 -9.0424,12.0904 h -2.7432 z"
       style="font-size:50.8px;line-height:1.25;font-family:'ITC Stone Sans Std';-inkscape-font-specification:'ITC Stone Sans Std';letter-spacing:0.177271px;stroke-width:0.264583"
       id="path29" />
    <path
       d="m 208.819,23.404287 -14.478,35.56 h 8.382 l 3.4036,-8.4836 h 11.0236 l 2.794,8.4836 h 11.3792 l -13.5128,-35.56 z m -0.8636,21.4376 c 1.3208,-4.2164 2.54,-7.62 3.9116,-12.7 h 0.1016 c 1.27,5.08 2.286,8.4836 3.4544,12.7 z"
       style="font-size:50.8px;line-height:1.25;font-family:'ITC Stone Sans Std';-inkscape-font-specification:'ITC Stone Sans Std';letter-spacing:0.177271px;stroke-width:0.264583"
       id="path31" />
    <path
       d="m 266.5526,23.404287 h -8.4328 v 20.3708 h -0.1016 c -2.54,-4.826 -10.2108,-14.0716 -15.34159,-20.3708 h -7.7724 v 35.56 h 8.4328 v -20.828 h 0.1016 c 3.40359,5.8928 10.61719,14.3764 15.95119,20.828 h 7.1628 z"
       style="font-size:50.8px;line-height:1.25;font-family:'ITC Stone Sans Std';-inkscape-font-specification:'ITC Stone Sans Std';letter-spacing:0.177271px;stroke-width:0.264583"
       id="path33" />
    <path
       d="m 287.93817,58.964287 h 28.448 v -7.3152 h -13.8684 l 4.9276,-5.1816 c 7.0612,-7.3152 8.5852,-10.4648 8.5852,-14.4272 0,-6.604 -6.7564,-9.2456 -12.954,-9.2456 -6.7564,0 -11.3284,2.54 -13.97,4.9276 l 3.4544,5.08 c 2.794,-1.9304 5.588,-3.4036 8.0772,-3.4036 2.4384,0 3.9624,1.9812 3.9624,3.6576 0,4.7244 -5.4864,10.8204 -11.8364,16.5608 l -4.8768,4.4704 z"
       style="font-size:50.8px;line-height:1.25;font-family:'ITC Stone Sans Std';-inkscape-font-specification:'ITC Stone Sans Std';letter-spacing:0.177271px;stroke-width:0.264583"
       id="path35" />
    <path
       d="m 346.0782,22.794687 c -14.0208,1.2192 -27.0256,10.6172 -27.2288,23.4696 -0.0508,2.6924 1.5748,13.3096 15.3416,13.3096 9.8552,0 15.1892,-6.9596 15.24,-11.8364 0.0508,-7.5692 -6.9088,-10.668 -12.6492,-10.668 -2.54,0 -3.7592,0.3048 -5.0292,0.5588 1.6764,-4.2672 8.2296,-8.8392 14.3256,-9.4488 z m -11.684,18.8468 c 2.8448,0 4.4196,2.8956 4.4196,6.2484 0,3.7592 -1.8288,6.858 -4.4196,6.858 -2.5908,0 -4.826,-2.286 -4.826,-6.6548 0,-4.2672 1.778,-6.4516 4.826,-6.4516 z"
       style="font-size:50.8px;line-height:1.25;font-family:'ITC Stone Sans Std';-inkscape-font-specification:'ITC Stone Sans Std';letter-spacing:0.177271px;stroke-width:0.264583"
       id="path37" />
  </g>
</svg>
